<svg width="97" height="98" viewBox="0 0 97 98" fill="none" xmlns="http://www.w3.org/2000/svg">
<path d="M89.5054 49.4385L89.5056 49.4418L91.0337 74.3801C91.2744 78.3095 89.4887 82.0621 86.1123 83.9927C78.3294 88.4432 63.31 95.4999 46.8679 95.1411C30.6489 94.7872 17.9026 89.2192 11.3761 85.6693C8.39996 84.0506 6.67032 80.923 6.45978 77.4869L4.76711 49.8619C4.73002 49.2565 4.74087 48.6491 4.79958 48.0455L6.08871 34.7896C6.66406 28.8733 11.6534 24.3704 17.5975 24.4028L77.3295 24.7285C83.4127 24.7617 88.4178 29.5268 88.7496 35.601L89.5054 49.4385Z" fill="#EFEFEF" stroke="black"/>
<path d="M70.6688 28.407C69.7866 30.2881 68.2471 33.6943 61.5928 34.9419C53.7033 36.4211 41.7169 36.1576 33.6752 35.1545C28.5377 34.5137 24.7784 31.0477 23.7779 28.2851" stroke="black"/>
<path d="M93.6794 86.6406C93.2354 91.3219 89.2977 94.8212 84.5739 94.8884C78.8827 94.9693 74.3581 90.0927 74.7681 84.404C75.3831 75.8704 76.0631 64.0615 75.9273 54.9744C75.7915 45.882 74.7782 34.245 73.9258 25.8666C73.3601 20.3073 77.6535 15.4022 83.2291 15.3229C88.0094 15.2549 92.0558 18.7895 92.535 23.5341C93.3061 31.1701 94.3297 42.8437 94.78 54.7185C95.2378 66.7916 94.4173 78.8601 93.6794 86.6406Z" fill="#EFEFEF" stroke="black"/>
<path d="M2.64382 23.8496C3.08781 19.1683 7.02552 15.669 11.7493 15.6018C17.4405 15.5209 21.9651 20.3975 21.5551 26.0862C20.9401 34.6198 20.2601 46.4287 20.3959 55.5158C20.5318 64.6083 21.5451 76.2453 22.3975 84.6236C22.9631 90.1829 18.6697 95.0881 13.0941 95.1673C8.31387 95.2353 4.26743 91.7008 3.78828 86.9561C3.01714 79.3201 1.99349 67.6465 1.54321 55.7717C1.0854 43.6986 1.9059 31.6302 2.64382 23.8496Z" fill="#EFEFEF" stroke="black"/>
<path d="M77.5993 5.22965C83.2263 5.94092 87.2859 10.7956 87.2843 16.4968C87.2824 23.6434 80.9919 29.1894 73.8631 28.4778C65.5795 27.6508 55.1082 26.8084 46.8487 26.8131C38.5656 26.8178 28.1859 27.6591 20.0159 28.4802C13.0553 29.1797 6.91088 23.7631 6.91282 16.785C6.91442 10.9933 11.1968 6.12276 16.943 5.54021C24.6414 4.75975 35.6712 3.82687 46.8699 3.50875C58.3208 3.18347 69.7526 4.23779 77.5993 5.22965Z" fill="#EFEFEF" stroke="black"/>
</svg>
