<svg width="90" height="150" viewBox="0 0 90 150" fill="none" xmlns="http://www.w3.org/2000/svg">
<rect x="0.5" y="74.5" width="89" height="75" rx="2.5" fill="#EFEFEF" stroke="black"/>
<rect x="0.5" y="0.5" width="89" height="74" rx="2.5" fill="#EFEFEF" stroke="black"/>
<mask id="path-3-inside-1_901_9006" fill="white">
<path fill-rule="evenodd" clip-rule="evenodd" d="M0.0154887 2.69327C0.169119 1.1805 1.4467 0 3 0H17H79C80.6569 0 82 1.34315 82 3V17C82 18.6569 80.6569 20 79 20H20V130H79C80.6569 130 82 131.343 82 133V147C82 148.657 80.6569 150 79 150H17H3C2.7929 150 2.59069 149.979 2.3954 149.939C1.02835 149.659 0 148.45 0 147V133V17V3V3C0 2.89644 0.00524682 2.79412 0.0154887 2.69327Z"/>
</mask>
<path fill-rule="evenodd" clip-rule="evenodd" d="M0.0154887 2.69327C0.169119 1.1805 1.4467 0 3 0H17H79C80.6569 0 82 1.34315 82 3V17C82 18.6569 80.6569 20 79 20H20V130H79C80.6569 130 82 131.343 82 133V147C82 148.657 80.6569 150 79 150H17H3C2.7929 150 2.59069 149.979 2.3954 149.939C1.02835 149.659 0 148.45 0 147V133V17V3V3C0 2.89644 0.00524682 2.79412 0.0154887 2.69327Z" fill="#EFEFEF"/>
<path d="M0.0154887 2.69327L-0.979394 2.59223L-0.979394 2.59223L0.0154887 2.69327ZM20 20V19H19V20H20ZM20 130H19V131H20V130ZM2.3954 149.939L2.59587 148.959H2.59587L2.3954 149.939ZM3 -1C0.928316 -1 -0.774446 0.574138 -0.979394 2.59223L1.01037 2.7943C1.11268 1.78686 1.96508 1 3 1V-1ZM3 1H17V-1H3V1ZM79 -1H17V1H79V-1ZM83 3C83 0.790861 81.2091 -1 79 -1V1C80.1046 1 81 1.89543 81 3H83ZM83 17V3H81V17H83ZM79 21C81.2091 21 83 19.2091 83 17H81C81 18.1046 80.1046 19 79 19V21ZM20 21H79V19H20V21ZM19 20V130H21V20H19ZM79 129H20V131H79V129ZM83 133C83 130.791 81.2091 129 79 129V131C80.1046 131 81 131.895 81 133H83ZM83 147V133H81V147H83ZM79 151C81.2091 151 83 149.209 83 147H81C81 148.105 80.1046 149 79 149V151ZM17 151H79V149H17V151ZM17 149H3V151H17V149ZM2.19492 150.919C2.45583 150.972 2.72519 151 3 151V149C2.8606 149 2.72555 148.986 2.59587 148.959L2.19492 150.919ZM-1 147C-1 148.934 0.371786 150.546 2.19492 150.919L2.59587 148.959C1.68491 148.773 1 147.965 1 147H-1ZM1 147V133H-1V147H1ZM1 133V17H-1V133H1ZM1 17V3H-1V17H1ZM1 3V3H-1V3H1ZM1 3C1 2.93025 1.00353 2.86164 1.01037 2.7943L-0.979394 2.59223C-0.993039 2.72659 -1 2.86264 -1 3H1Z" fill="black" mask="url(#path-3-inside-1_901_9006)"/>
<path d="M20.4448 34C21.1524 30.1079 23.6077 28.6675 26.0108 26.7718C26.5041 26.3826 27.2487 26.4978 27.6054 27.015C28.9366 28.9455 30.9448 31.6222 30.9448 36C30.9448 42.5 31.4448 49 30.9448 55.5C30.5857 60.1676 28.9913 62.9015 27.4632 64.4972C27.1648 64.8088 26.6921 64.8568 26.3171 64.6432C23.9365 63.2871 20.4448 61.1617 20.4448 57.5C20.4448 52.5 19.4448 39.5 20.4448 34Z" fill="#EFEFEF"/>
<path d="M20.4448 34C21.1524 30.1079 23.6077 28.6675 26.0108 26.7718C26.5041 26.3826 27.2487 26.4978 27.6054 27.015C28.9366 28.9455 30.9448 31.6222 30.9448 36C30.9448 42.5 31.4448 49 30.9448 55.5C30.5857 60.1676 28.9913 62.9015 27.4632 64.4972C27.1648 64.8088 26.6921 64.8568 26.3171 64.6432C23.9365 63.2871 20.4448 61.1617 20.4448 57.5C20.4448 52.5 19.4448 39.5 20.4448 34Z" stroke="black"/>
<path d="M20.4448 34C21.1524 30.1079 23.6077 28.6675 26.0108 26.7718C26.5041 26.3826 27.2487 26.4978 27.6054 27.015C28.9366 28.9455 30.9448 31.6222 30.9448 36C30.9448 42.5 31.4448 49 30.9448 55.5C30.5857 60.1676 28.9913 62.9015 27.4632 64.4972C27.1648 64.8088 26.6921 64.8568 26.3171 64.6432C23.9365 63.2871 20.4448 61.1617 20.4448 57.5C20.4448 52.5 19.4448 39.5 20.4448 34Z" stroke="black" stroke-opacity="0.2"/>
<path d="M20.4448 91C21.1524 87.1079 23.6077 85.6675 26.0108 83.7718C26.5041 83.3826 27.2487 83.4978 27.6054 84.015C28.9366 85.9455 30.9448 88.6222 30.9448 93C30.9448 99.5 31.4448 106 30.9448 112.5C30.5857 117.168 28.9913 119.901 27.4632 121.497C27.1648 121.809 26.6921 121.857 26.3171 121.643C23.9365 120.287 20.4448 118.162 20.4448 114.5C20.4448 109.5 19.4448 96.5 20.4448 91Z" fill="#EFEFEF"/>
<path d="M20.4448 91C21.1524 87.1079 23.6077 85.6675 26.0108 83.7718C26.5041 83.3826 27.2487 83.4978 27.6054 84.015C28.9366 85.9455 30.9448 88.6222 30.9448 93C30.9448 99.5 31.4448 106 30.9448 112.5C30.5857 117.168 28.9913 119.901 27.4632 121.497C27.1648 121.809 26.6921 121.857 26.3171 121.643C23.9365 120.287 20.4448 118.162 20.4448 114.5C20.4448 109.5 19.4448 96.5 20.4448 91Z" stroke="black"/>
<path d="M20.4448 91C21.1524 87.1079 23.6077 85.6675 26.0108 83.7718C26.5041 83.3826 27.2487 83.4978 27.6054 84.015C28.9366 85.9455 30.9448 88.6222 30.9448 93C30.9448 99.5 31.4448 106 30.9448 112.5C30.5857 117.168 28.9913 119.901 27.4632 121.497C27.1648 121.809 26.6921 121.857 26.3171 121.643C23.9365 120.287 20.4448 118.162 20.4448 114.5C20.4448 109.5 19.4448 96.5 20.4448 91Z" stroke="black" stroke-opacity="0.2"/>
</svg>
