<svg width="97" height="232" viewBox="0 0 97 232" fill="none" xmlns="http://www.w3.org/2000/svg">
<rect x="0.5" y="153.5" width="96" height="78" rx="2.5" fill="#EFEFEF" stroke="black"/>
<rect x="0.5" y="78.5" width="96" height="75" rx="2.5" fill="#EFEFEF" stroke="black"/>
<rect x="0.5" y="0.5" width="96" height="78" rx="2.5" fill="#EFEFEF" stroke="black"/>
<mask id="path-4-inside-1_901_9033" fill="white">
<path fill-rule="evenodd" clip-rule="evenodd" d="M1.83226 0.235755C2.19118 0.0839466 2.58579 0 3 0H17H79C80.6569 0 82 1.34315 82 3V17C82 18.6569 80.6569 20 79 20H20V212H79C80.6569 212 82 213.343 82 215V229C82 230.657 80.6569 232 79 232H17H3C2.7929 232 2.59069 231.979 2.3954 231.939C1.02835 231.659 0 230.45 0 229V215V17V3C0 3 0 3 0 3C0 2.64936 0.0601541 2.31278 0.170705 2C0.451945 1.2043 1.05934 0.562673 1.83226 0.235755Z"/>
</mask>
<path fill-rule="evenodd" clip-rule="evenodd" d="M1.83226 0.235755C2.19118 0.0839466 2.58579 0 3 0H17H79C80.6569 0 82 1.34315 82 3V17C82 18.6569 80.6569 20 79 20H20V212H79C80.6569 212 82 213.343 82 215V229C82 230.657 80.6569 232 79 232H17H3C2.7929 232 2.59069 231.979 2.3954 231.939C1.02835 231.659 0 230.45 0 229V215V17V3C0 3 0 3 0 3C0 2.64936 0.0601541 2.31278 0.170705 2C0.451945 1.2043 1.05934 0.562673 1.83226 0.235755Z" fill="#EFEFEF"/>
<path d="M1.83226 0.235755L1.44271 -0.68525H1.44271L1.83226 0.235755ZM20 20V19H19V20H20ZM20 212H19V213H20V212ZM2.3954 231.939L2.59587 230.959H2.59587L2.3954 231.939ZM0.170705 2L-0.772135 1.66675L-0.772135 1.66675L0.170705 2ZM3 -1C2.44956 -1 1.92266 -0.888249 1.44271 -0.68525L2.22182 1.15676C2.4597 1.05614 2.72201 1 3 1V-1ZM3 1H17V-1H3V1ZM79 -1H17V1H79V-1ZM83 3C83 0.790861 81.2091 -1 79 -1V1C80.1046 1 81 1.89543 81 3H83ZM83 17V3H81V17H83ZM79 21C81.2091 21 83 19.2091 83 17H81C81 18.1046 80.1046 19 79 19V21ZM20 21H79V19H20V21ZM19 20V212H21V20H19ZM79 211H20V213H79V211ZM83 215C83 212.791 81.2091 211 79 211V213C80.1046 213 81 213.895 81 215H83ZM83 229V215H81V229H83ZM79 233C81.2091 233 83 231.209 83 229H81C81 230.105 80.1046 231 79 231V233ZM17 233H79V231H17V233ZM17 231H3V233H17V231ZM2.19492 232.919C2.45583 232.972 2.72519 233 3 233V231C2.8606 231 2.72555 230.986 2.59587 230.959L2.19492 232.919ZM-1 229C-1 230.934 0.371786 232.546 2.19492 232.919L2.59587 230.959C1.68491 230.773 1 229.965 1 229H-1ZM1 229V215H-1V229H1ZM1 215V17H-1V215H1ZM1 17V3H-1V17H1ZM1 3C1 3 1 3 1 3C1 3 1 3 1 3C1 3 1 3 1 3C1 3 1 3 1 3C1 3 1 3 1 3C1 3 1 3 1 3V3V3V3V3C1 3 1 3 1 3C1 3 1 3 1 3C1 3 1 3 1 3C1 3 1 3 1 3C1 3 1 3 1 3C1 3 1 3 1 3H-1C-1 3 -1 3 -1 3C-1 3 -1 3 -1 3C-1 3 -1 3 -1 3C-1 3 -1 3 -1 3C-1 3 -1 3 -1 3C-1 3 -1 3 -1 3V3V3V3V3C-1 3 -1 3 -1 3C-1 3 -1 3 -1 3C-1 3 -1 3 -1 3C-1 3 -1 3 -1 3C-1 3 -1 3 -1 3C-1 3 -1 3 -1 3H1ZM-0.772135 1.66675C-0.91999 2.08508 -1 2.53427 -1 3H1C1 2.76445 1.0403 2.54048 1.11355 2.33325L-0.772135 1.66675ZM1.44271 -0.68525C0.412206 -0.249382 -0.396799 0.604831 -0.772135 1.66675L1.11355 2.33325C1.30069 1.80377 1.70648 1.37473 2.22182 1.15676L1.44271 -0.68525Z" fill="black" mask="url(#path-4-inside-1_901_9033)"/>
<path d="M20.4448 105C21.1524 101.108 23.6077 99.6675 26.0108 97.7718C26.5041 97.3826 27.2487 97.4978 27.6054 98.015C28.9366 99.9455 30.9448 102.622 30.9448 107C30.9448 113.5 31.4448 120 30.9448 126.5C30.5857 131.168 28.9913 133.901 27.4632 135.497C27.1648 135.809 26.6921 135.857 26.3171 135.643C23.9365 134.287 20.4448 132.162 20.4448 128.5C20.4448 123.5 19.4448 110.5 20.4448 105Z" fill="#EFEFEF"/>
<path d="M20.4448 105C21.1524 101.108 23.6077 99.6675 26.0108 97.7718C26.5041 97.3826 27.2487 97.4978 27.6054 98.015C28.9366 99.9455 30.9448 102.622 30.9448 107C30.9448 113.5 31.4448 120 30.9448 126.5C30.5857 131.168 28.9913 133.901 27.4632 135.497C27.1648 135.809 26.6921 135.857 26.3171 135.643C23.9365 134.287 20.4448 132.162 20.4448 128.5C20.4448 123.5 19.4448 110.5 20.4448 105Z" stroke="black"/>
<path d="M20.4448 105C21.1524 101.108 23.6077 99.6675 26.0108 97.7718C26.5041 97.3826 27.2487 97.4978 27.6054 98.015C28.9366 99.9455 30.9448 102.622 30.9448 107C30.9448 113.5 31.4448 120 30.9448 126.5C30.5857 131.168 28.9913 133.901 27.4632 135.497C27.1648 135.809 26.6921 135.857 26.3171 135.643C23.9365 134.287 20.4448 132.162 20.4448 128.5C20.4448 123.5 19.4448 110.5 20.4448 105Z" stroke="black" stroke-opacity="0.2"/>
<path d="M20.4448 34C21.1524 30.1079 23.6077 28.6675 26.0108 26.7718C26.5041 26.3826 27.2487 26.4978 27.6054 27.015C28.9366 28.9455 30.9448 31.6222 30.9448 36C30.9448 42.5 31.4448 49 30.9448 55.5C30.5857 60.1676 28.9913 62.9015 27.4632 64.4972C27.1648 64.8088 26.6921 64.8568 26.3171 64.6432C23.9365 63.2871 20.4448 61.1617 20.4448 57.5C20.4448 52.5 19.4448 39.5 20.4448 34Z" fill="#EFEFEF"/>
<path d="M20.4448 34C21.1524 30.1079 23.6077 28.6675 26.0108 26.7718C26.5041 26.3826 27.2487 26.4978 27.6054 27.015C28.9366 28.9455 30.9448 31.6222 30.9448 36C30.9448 42.5 31.4448 49 30.9448 55.5C30.5857 60.1676 28.9913 62.9015 27.4632 64.4972C27.1648 64.8088 26.6921 64.8568 26.3171 64.6432C23.9365 63.2871 20.4448 61.1617 20.4448 57.5C20.4448 52.5 19.4448 39.5 20.4448 34Z" stroke="black"/>
<path d="M20.4448 34C21.1524 30.1079 23.6077 28.6675 26.0108 26.7718C26.5041 26.3826 27.2487 26.4978 27.6054 27.015C28.9366 28.9455 30.9448 31.6222 30.9448 36C30.9448 42.5 31.4448 49 30.9448 55.5C30.5857 60.1676 28.9913 62.9015 27.4632 64.4972C27.1648 64.8088 26.6921 64.8568 26.3171 64.6432C23.9365 63.2871 20.4448 61.1617 20.4448 57.5C20.4448 52.5 19.4448 39.5 20.4448 34Z" stroke="black" stroke-opacity="0.2"/>
<path d="M20.4448 172C21.1524 168.108 23.6077 166.667 26.0108 164.772C26.5041 164.383 27.2487 164.498 27.6054 165.015C28.9366 166.945 30.9448 169.622 30.9448 174C30.9448 180.5 31.4448 187 30.9448 193.5C30.5857 198.168 28.9913 200.901 27.4632 202.497C27.1648 202.809 26.6921 202.857 26.3171 202.643C23.9365 201.287 20.4448 199.162 20.4448 195.5C20.4448 190.5 19.4448 177.5 20.4448 172Z" fill="#EFEFEF"/>
<path d="M20.4448 172C21.1524 168.108 23.6077 166.667 26.0108 164.772C26.5041 164.383 27.2487 164.498 27.6054 165.015C28.9366 166.945 30.9448 169.622 30.9448 174C30.9448 180.5 31.4448 187 30.9448 193.5C30.5857 198.168 28.9913 200.901 27.4632 202.497C27.1648 202.809 26.6921 202.857 26.3171 202.643C23.9365 201.287 20.4448 199.162 20.4448 195.5C20.4448 190.5 19.4448 177.5 20.4448 172Z" stroke="black"/>
<path d="M20.4448 172C21.1524 168.108 23.6077 166.667 26.0108 164.772C26.5041 164.383 27.2487 164.498 27.6054 165.015C28.9366 166.945 30.9448 169.622 30.9448 174C30.9448 180.5 31.4448 187 30.9448 193.5C30.5857 198.168 28.9913 200.901 27.4632 202.497C27.1648 202.809 26.6921 202.857 26.3171 202.643C23.9365 201.287 20.4448 199.162 20.4448 195.5C20.4448 190.5 19.4448 177.5 20.4448 172Z" stroke="black" stroke-opacity="0.2"/>
</svg>
